<svg version="1.1" id="Calque_1" xmlns="http://www.w3.org/2000/svg" xmlns:xlink="http://www.w3.org/1999/xlink" x="0px" y="0px"
	 viewBox="0 0 595.3 841.9" style="enable-background:new 0 0 595.3 841.9;" xml:space="preserve">
<style type="text/css">
	.st0{fill:#1C1F3C;}
	.st1{fill:none;stroke:#FFFFFF;stroke-width:4;stroke-miterlimit:10;}
	.st2{fill:#FFFFFF;}
</style>
<path class="st0" d="M344.1,408.2c0,40-46.1,73.1-46.1,73.1s-46.1-33-46.1-73.1c0-25.5,20.6-46.1,46.1-46.1S344.1,382.7,344.1,408.2
	z"/>
<circle class="st1" cx="298" cy="408.2" r="34.4"/>
<g>
	<path class="st2" d="M290,430.2c-0.6-0.1-1.1-0.2-1.7-0.4c-2-0.7-3-2.1-3.4-4.1c-0.3-1.7-0.1-3.3,0.3-4.9c0.9-4.2,2.5-8.1,4.9-11.7
		c1.1-1.6,2.3-3,3.9-4c2.7-1.7,5.6-1.6,8.2,0.3c1.4,1,2.6,2.3,3.5,3.7c2.6,3.8,4.2,8.1,5.1,12.6c0.3,1.4,0.4,2.9,0,4.3
		c-0.5,2.4-2.2,3.9-4.7,4.1c-0.1,0-0.2,0-0.3,0.1h-1.9c-1.4-0.2-2.6-0.9-3.8-1.3c-1.7-0.6-3.4-0.6-5.1,0.2c-0.6,0.3-1.2,0.6-1.9,0.8
		c-0.5,0.2-0.9,0.2-1.4,0.3L290,430.2L290,430.2z"/>
	<path class="st2" d="M291.2,386.2c1.1,0.2,2,0.7,2.9,1.4c1.6,1.4,2.4,3.1,2.8,5.1c0.4,2.4,0.2,4.6-1.1,6.7
		c-1.1,1.8-2.7,2.8-4.9,2.6c-1.6-0.1-2.9-1-3.9-2.3c-1.6-1.9-2.2-4.1-2.1-6.6c0.1-1.7,0.6-3.3,1.6-4.7c0.8-1.1,1.9-1.9,3.3-2.1
		c0.1,0,0.1,0,0.2-0.1C290,386.2,291.2,386.2,291.2,386.2z"/>
	<path class="st2" d="M306.1,386.2c0.6,0.2,1.3,0.4,1.9,0.8c1.6,1,2.5,2.5,2.9,4.4c0.7,3.3,0.1,6.3-2.3,8.9
		c-1.6,1.7-3.8,2.2-5.8,1.4c-1.5-0.6-2.5-1.8-3.1-3.3c-1.5-3.4-0.8-7.7,1.8-10.3c0.9-0.9,1.9-1.5,3.2-1.8c0.1,0,0.1,0,0.2-0.1
		C304.8,386.2,306.1,386.2,306.1,386.2z"/>
	<path class="st2" d="M320,406.2c-0.2,0.8-0.4,1.7-0.7,2.4c-0.8,1.8-2.1,3.1-4,3.8c-2.2,0.7-4.5-0.3-5.4-2.6
		c-1.3-3.3,0.6-7.8,3.9-9.1c2.7-1.1,5.5,0.4,6.1,3.3c0,0.3,0.1,0.5,0.2,0.8L320,406.2L320,406.2L320,406.2z"/>
	<path class="st2" d="M276,404.8c0.1-0.6,0.2-1.1,0.4-1.6c1.1-2.6,3.8-3.6,6.4-2.2c2.9,1.5,4.4,5.4,3.4,8.5c-1,2.9-4,4.2-6.9,2.3
		c-1.9-1.2-2.9-3-3.3-5.2c0-0.1,0-0.2-0.1-0.3L276,404.8L276,404.8L276,404.8z"/>
</g>
</svg>
