<svg version="1.1" id="Calque_1" xmlns="http://www.w3.org/2000/svg" xmlns:xlink="http://www.w3.org/1999/xlink" x="0px" y="0px"
	 viewBox="0 0 595.3 841.9" style="enable-background:new 0 0 595.3 841.9;" xml:space="preserve">
<style type="text/css">
	.st0{fill:#1C1F3C;}
	.st1{fill:none;stroke:#FFFFFF;stroke-width:4;stroke-miterlimit:10;}
	.st2{fill:#FFFFFF;}
</style>
<path class="st0" d="M343.6,407c0,40-46.1,73.1-46.1,73.1s-46.1-33-46.1-73.1c0-25.5,20.6-46.1,46.1-46.1S343.6,381.5,343.6,407z"/>
<circle class="st1" cx="297.5" cy="407" r="34.4"/>
<g>
	<path class="st2" d="M274.9,419.8c0-5.2,0-10.3,0-15.5c0,0,0.1,0,0.1,0c7,2.3,14.1,4.7,21.1,7.1c1.3,0.4,2.5,0.4,3.7,0
		c7.1-2.4,14.2-4.7,21.3-7.1c0,5.1,0,10.2,0,15.4c-0.1,0.5-0.2,1-0.5,1.5c-1,2.1-2.7,3.2-5,3.2c-11.8,0-23.6,0-35.3,0
		c-0.1,0-0.2,0-0.4,0c-2.1-0.1-3.6-1.1-4.6-3C275.2,420.8,275.1,420.3,274.9,419.8z"/>
	<path class="st2" d="M274.9,401.2c0-1.7,0-3.4,0-5.2c0.2-0.6,0.4-1.3,0.7-1.8c1-1.8,2.6-2.7,4.7-2.7c3.2,0,6.4,0,9.5,0
		c0.4,0,0.5-0.1,0.5-0.5c0-0.5,0-1.1,0-1.6c0.1-2,1.7-3.6,3.7-3.7c2.7,0,5.4,0,8,0c1.7,0,3.2,1.2,3.6,3c0.1,0.7,0.1,1.5,0.1,2.2
		c0,0.5,0.1,0.6,0.6,0.6c3.2,0,6.3,0,9.5,0c2.3,0,4,1.1,4.9,3.2c0.2,0.4,0.3,0.9,0.4,1.4c0,1.7,0,3.4,0,5.1c0,0-0.1,0-0.1,0.1
		c-7.5,2.5-15,5-22.5,7.5c-0.4,0.1-0.8,0.1-1.2,0c-4.5-1.5-9-3-13.5-4.5C280.9,403.2,277.9,402.2,274.9,401.2z M298,391.5
		c1.2,0,2.3,0,3.5,0c0.3,0,0.4-0.1,0.4-0.4c0-0.4,0-0.8,0-1.2c0-0.3-0.1-0.4-0.4-0.4c-2.3,0-4.7,0-7,0c-0.3,0-0.4,0.1-0.4,0.4
		c0,0.4,0,0.8,0,1.2c0,0.4,0.1,0.4,0.4,0.4C295.7,391.5,296.9,391.5,298,391.5z"/>
</g>
</svg>
