<svg version="1.1" id="Calque_1" xmlns="http://www.w3.org/2000/svg" xmlns:xlink="http://www.w3.org/1999/xlink" x="0px" y="0px"
	 viewBox="0 0 595.3 841.9" style="enable-background:new 0 0 595.3 841.9;" xml:space="preserve">
<style type="text/css">
	.st0{fill:#1C1F3C;}
	.st1{fill:none;stroke:#FFFFFF;stroke-width:4;stroke-miterlimit:10;}
	.st2{fill:#FFFFFF;}
</style>
<path class="st0" d="M343.6,407c0,40-46.1,73.1-46.1,73.1s-46.1-33-46.1-73.1c0-25.5,20.6-46.1,46.1-46.1S343.6,381.5,343.6,407z"/>
<circle class="st1" cx="297.5" cy="407" r="34.4"/>
<g>
	<path class="st2" d="M316.7,427.2c-12.6,0-25.2,0-37.7,0c0,0,0-0.1-0.1-0.1c-0.8-0.5-0.9-1.2-0.3-1.9c0.4-0.4,0.8-0.7,1-1.3
		c1.7-5.9,3.9-11.5,7-16.8c1.7-2.9,3.6-5.7,5.9-8.1c0.6-0.6,1.2-1.2,1.8-1.8c-1.9-1.9-5.2-2.2-7.5-0.7c-0.2,0.2-0.5,0.4-0.7,0.1
		c-0.1-0.2-0.2-0.5-0.1-0.7c0.6-2.3,3.6-4.6,6.7-3.2c0.5,0.2,0.9,0.6,1.4,0.9c0-0.1-0.1-0.1-0.1-0.2c-2.3-3.2-5.3-5-9.4-4.4
		c-0.2,0-0.6-0.1-0.6-0.2c-0.1-0.2,0-0.5,0.2-0.7c1.2-1.5,2.8-2.3,4.6-2.7c2.1-0.4,4.1-0.1,5.9,1.2c0.7,0.5,1.3,1.2,2,1.8
		c-0.3-0.7-0.6-1.3-1-1.9c-0.9-1.5-2.2-2.6-3.8-3.3c-0.3-0.1-0.5-0.3-0.5-0.6c0-0.4,0.3-0.5,0.6-0.6c0.4-0.1,0.8-0.2,1.2-0.3
		c0.5,0,1.1,0,1.6,0c0.8,0.2,1.6,0.3,2.3,0.6c2.9,1.2,4.5,3.3,4.9,6.4c0,0.4,0,0.9,0,1.3c0.1,0,0.1,0,0.2,0c2.9-0.8,5.4-0.2,7.5,1.9
		c1.6,1.6,2.6,3.6,2.4,6c0,0.3,0,0.6-0.4,0.7c-0.4,0.1-0.6-0.1-0.8-0.4c-0.8-1.1-1.9-1.9-3.1-2.5c-0.9-0.4-1.9-0.7-2.9-0.8
		c0.2,0.1,0.4,0.2,0.6,0.3c1.2,0.6,2.2,1.5,2.9,2.6c0.9,1.5,1.3,3.2,1.2,4.9c-0.1,1.5-0.6,2.9-1.5,4.1c-0.1,0.1-0.4,0.3-0.5,0.2
		c-0.2,0-0.3-0.3-0.4-0.5c0-0.1,0-0.2,0-0.3c-0.1-0.6-0.1-1.1-0.3-1.6c-0.8-2.8-2.7-4.6-5.2-5.9c-0.3-0.2-0.7-0.3-1-0.4
		c0,0.1,0.1,0.2,0.1,0.2c3.3,2.5,2,6.8-0.7,8.2c-0.2,0.1-0.5,0.1-0.6,0c-0.1-0.1-0.1-0.4-0.1-0.6c0.4-1,0.5-2,0.3-3.1
		c-0.3-1.6-1.1-3-2.5-4.1c-4.7,5.8-7.5,12.4-7.9,20c4.1-1,8.2-1.3,12.4-0.9c-0.1-1.5-0.3-2.9-0.8-4.3c-1,0.2-1.8,1.2-2,2.3
		c0,0.1-0.1,0.3-0.1,0.4c-0.1-0.1-0.3-0.2-0.4-0.3c-0.7-1.1-0.3-2.5,0.8-3.1c0.1,0,0.2-0.1,0.2-0.1c-1.5,0.1-2.8,0.6-3.6,2
		c-0.1,0.1-0.2,0.2-0.3,0.4c-0.1-0.2-0.2-0.3-0.3-0.5c-0.2-0.8,0-1.6,0.4-2.3c0.6-1,1.5-1.6,2.6-1.7c-1-0.2-1.9-0.1-2.7,0.4
		c-0.1,0.1-0.3,0-0.4,0c0-0.1,0-0.3,0-0.4c0.5-1.6,2.6-2.8,4.4-1.9c0.2,0.1,0.5,0.3,0.7,0.4c0-0.1,0.1-0.2,0.1-0.3
		c0.8-1.9,3.1-2.7,4.9-1.5c0.1,0.1,0.2,0.3,0.4,0.4c-0.2,0.1-0.3,0.2-0.5,0.2c-0.9,0.1-1.7,0.5-2.3,1.3c0.8-0.4,1.6-0.6,2.4-0.4
		c1.1,0.3,1.9,0.9,2.4,2c0.1,0.1,0,0.3,0.1,0.5c-0.2,0-0.3,0-0.5-0.1c-1.1-0.6-2.2-0.5-3.3-0.1c-0.3,0.1-0.5,0.3-0.8,0.4
		c1.5-0.2,2.7,0.7,2.7,2c0,0.2-0.1,0.3-0.1,0.5c-0.1-0.1-0.3-0.2-0.4-0.3c-0.6-0.8-2.1-1.2-3-0.7c0.8,1.4,1.2,3,1.5,4.6
		c0.1,0.4,0.2,0.5,0.6,0.6c3.1,0.6,6.1,1.6,8.8,3.2c1.5,0.9,2.9,1.9,4,3.3c0.5,0.6,0.4,1.3-0.3,1.7
		C316.8,427.1,316.8,427.2,316.7,427.2z"/>
</g>
</svg>
