<svg version="1.1" id="Calque_1" xmlns="http://www.w3.org/2000/svg" xmlns:xlink="http://www.w3.org/1999/xlink" x="0px" y="0px"
	 viewBox="0 0 595.3 841.9" style="enable-background:new 0 0 595.3 841.9;" xml:space="preserve">
<style type="text/css">
	.st0{fill:#1C1F3C;}
	.st1{fill:none;stroke:#FFFFFF;stroke-width:4;stroke-miterlimit:10;}
	.st2{fill:#FFFFFF;}
</style>
<path class="st0" d="M343.6,407c0,40-46.1,73.1-46.1,73.1s-46.1-33-46.1-73.1c0-25.5,20.6-46.1,46.1-46.1S343.6,381.5,343.6,407z"/>
<circle class="st1" cx="297.5" cy="407" r="34.4"/>
<g>
	<path class="st2" d="M273.6,411.7c0.2-0.7,0.3-1.5,0.5-2.2c1-3.3,3.1-5.7,6.2-7.3c0.3-0.1,0.5-0.1,0.7,0c1.9,1.3,4.1,1.9,6.5,1.7
		c1-0.1,2-0.5,2.8-1.1c0.1-0.1,0.3-0.2,0.5-0.3c0.3,1.7,1,3.1,2.3,4.3c-4.9,2.4-6.7,6.4-6.3,11.6c-0.2,0-0.3,0-0.4,0
		c-4.2,0-8.4,0-12.5,0c-0.1,0-0.1,0-0.2,0C273.6,416.2,273.6,414,273.6,411.7z"/>
	<path class="st2" d="M322.6,418.4c-0.4,0-0.7,0-1.1,0c-3.8,0-7.5,0-11.3,0c-0.2,0-0.4,0-0.7,0c0-0.3,0-0.6,0-0.9
		c0-1.7-0.1-3.3-0.7-4.9c-1-2.6-2.8-4.5-5.3-5.7c-0.1,0-0.2-0.1-0.3-0.2c1.2-1.2,2-2.7,2.3-4.4c0.1,0,0.2,0.1,0.2,0.1
		c1.6,1.4,3.4,1.7,5.4,1.3c1.5-0.2,2.9-0.8,4.2-1.7c0.2-0.2,0.4-0.1,0.6,0c3.8,1.9,6,5,6.6,9.2c0,0.1,0.1,0.2,0.1,0.3
		C322.6,414,322.6,416.2,322.6,418.4z"/>
	<path class="st2" d="M289.6,421.5c0-1.9,0-3.8,0-5.6c0.1-3.3,3-6.5,6.3-6.8c1.7-0.2,3.4-0.3,5.1,0.1c3.3,0.8,5.5,3.6,5.6,7.1
		c0.1,1.6,0,3.3,0,4.9c0,0.1,0,0.2-0.1,0.3C301,421.5,295.3,421.5,289.6,421.5z"/>
	<path class="st2" d="M287.3,387.2c0.6,0.1,1.1,0.2,1.7,0.4c3.1,1.1,4.9,4,4.6,7.4c-0.3,3-2.8,5.5-5.8,6c-3.7,0.6-7.4-2-8-5.7
		c-0.6-4,2-7.5,5.9-8.1c0.1,0,0.2-0.1,0.3-0.1C286.3,387.2,286.8,387.2,287.3,387.2z"/>
	<path class="st2" d="M310.3,387.2c0.5,0.1,1.1,0.2,1.6,0.4c3,1,5,4,4.7,7.1c-0.3,3.3-2.7,5.9-5.9,6.3c-3.8,0.6-7.4-2-8-5.9
		c-0.6-3.7,2-7.2,5.7-7.9c0.2,0,0.4-0.1,0.6-0.1C309.4,387.2,309.9,387.2,310.3,387.2z"/>
	<path class="st2" d="M298.1,406c-2.5,0-4.6-2.1-4.6-4.6c0-2.5,2.1-4.6,4.6-4.6c2.5,0,4.6,2.1,4.6,4.6
		C302.7,404,300.7,406,298.1,406z"/>
</g>
</svg>
