<svg version="1.1" id="Calque_1" xmlns="http://www.w3.org/2000/svg" xmlns:xlink="http://www.w3.org/1999/xlink" x="0px" y="0px"
	 viewBox="0 0 595.3 841.9" style="enable-background:new 0 0 595.3 841.9;" xml:space="preserve">
<style type="text/css">
	.st0{fill:#1C1F3C;}
	.st1{fill:none;stroke:#FFFFFF;stroke-width:4;stroke-miterlimit:10;}
	.st2{fill:#FDFDFD;}
</style>
<path class="st0" d="M343.6,407c0,40-46.1,73.1-46.1,73.1s-46.1-33-46.1-73.1c0-25.5,20.6-46.1,46.1-46.1S343.6,381.5,343.6,407z"/>
<circle class="st1" cx="297.5" cy="407" r="34.4"/>
<g>
	<path class="st2" d="M290.1,430.1c-0.8-0.3-1.5-0.5-2.3-0.8c-0.2-0.1-0.4-0.3-0.6-0.4c0.7-0.3,1.4-0.6,2.1-0.9
		c0.7-0.4,0.9-0.9,0.6-1.4c-0.3-0.6-0.8-0.6-1.5-0.2c-2.9,1.7-6.4,0.1-7.1-3.2c-0.4-1.9,0.2-3.5,1.6-4.8c0.2-0.2,0.5-0.5,0.6-0.8
		c0-0.3-0.2-0.8-0.4-0.9c-0.2-0.2-0.7-0.1-1,0c-0.4,0.3-0.8,0.7-1.1,1c-0.2,0.3-0.4,0.3-0.8,0.2c-2.8-0.9-4.2-4.5-2.6-7.1
		c0.1,0.1,0.3,0.2,0.4,0.2c1.3,1,2.8,1.4,4.4,1.3c0.6,0,1-0.4,1-1c0-0.6-0.4-1-1-0.9c-2.2,0.2-4.3-1.3-4.9-3.6
		c-0.7-2.7,1.3-5.6,4-5.9c0.2,0,0.4,0,0.6-0.1c0.5-0.2,0.7-0.5,0.6-1c-0.1-0.5-0.3-0.9-0.9-0.8c-0.8,0.1-1.7,0.3-2.6,0.4
		c-0.4-1.1-0.2-2.3,0.3-3.4c0.9-2.1,3.2-3.5,5.3-3.1c2.4,0.4,4.2,2.3,4.4,4.7c0,0.1,0,0.3,0.1,0.4c0.1,0.6,0.5,0.9,1.1,0.8
		c0.5-0.1,0.8-0.4,0.8-1c0-3-2.2-5.8-5.1-6.6c-0.5-0.1-1-0.2-1.4-0.2c-0.3,0-0.5-0.2-0.6-0.5c-0.5-1.7,0.3-3.7,1.9-4.5
		c1.6-0.8,3.6-0.3,4.6,1.2c0.1,0.1,0.2,0.3,0.3,0.5c0.3,0.4,0.8,0.5,1.2,0.3c0.4-0.3,0.6-0.8,0.4-1.2c-0.5-1-1.2-1.7-2.1-2.3
		c-0.1-0.1-0.3-0.2-0.5-0.3c0.5-1.2,1.3-1.9,2.5-2.1c2.4-0.5,4.5,1.2,4.5,3.8c0,12.7,0,25.3,0,38c0,3.2-2.1,5.7-5.2,6.1
		c-0.1,0-0.2,0.1-0.3,0.1C290.8,430.1,290.5,430.1,290.1,430.1z M287.4,416.6c-0.4,0-0.8-0.1-1.1-0.1c-0.6,0-1,0.4-1,1
		c0,0.6,0.4,0.9,1,1c2.7,0.1,4.3,2.2,3.9,4.9c-0.1,0.7,0.1,1.2,0.7,1.3c0.6,0.1,1-0.2,1.1-0.9c0.4-2.4-0.3-4.4-2.1-5.9
		c-0.2-0.2-0.4-0.5-0.4-0.8c-0.2-2.3,0.8-4,2.8-5c0.7-0.3,0.9-0.8,0.6-1.3c-0.2-0.6-0.7-0.7-1.4-0.4c-1.9,0.9-3.1,2.3-3.7,4.3
		C287.6,415.2,287.6,415.9,287.4,416.6z M288,405.2c2.3,0,4.4-1,5.6-2.7c0.4-0.6,0.4-1.1-0.1-1.5c-0.5-0.4-1-0.3-1.4,0.3
		c-1.9,2.3-4.7,2.7-7,0.9c-0.6-0.4-1-0.4-1.4,0.1c-0.4,0.5-0.3,0.9,0.3,1.4C285.2,404.7,286.6,405.2,288,405.2z"/>
	<path class="st2" d="M304.1,430.1c-0.5-0.1-1.1-0.3-1.6-0.5c-2.4-0.9-3.9-3.1-3.9-5.7c0-12.8,0-25.5,0-38.3c0-1.8,1.1-3.1,2.8-3.6
		c1.6-0.4,3.3,0.3,4.1,1.8c0,0.1,0.1,0.2,0.1,0.2c-0.7,0.6-1.4,1.2-2,1.9c-0.2,0.2-0.3,0.5-0.5,0.7c-0.3,0.6-0.2,1.1,0.3,1.3
		c0.5,0.3,1,0.2,1.3-0.4c0.8-1.3,1.9-2,3.3-2c2.4,0,4.1,2.4,3.5,4.8c-0.1,0.4-0.2,0.5-0.6,0.5c-3.5,0.2-6.3,3.1-6.5,6.6
		c0,0.8,0.2,1.2,0.8,1.3c0.6,0.1,1-0.3,1.1-1.1c0.2-2.2,1.6-4,3.7-4.6c1.8-0.5,3.5-0.1,4.9,1.3c1.4,1.4,1.9,3.1,1.5,5
		c0,0.1-0.1,0.1-0.1,0.1c-0.8-0.1-1.5-0.3-2.3-0.4c-0.7-0.1-1.1,0.2-1.2,0.8c0,0.6,0.3,1,1.1,1.1c1.2,0.1,2.2,0.6,3,1.5
		c1.3,1.5,1.6,3.2,0.9,5c-0.7,1.8-2.4,2.9-4.2,2.9c-0.2,0-0.4,0-0.5,0c-0.6,0-0.9,0.3-1,0.9c0,0.6,0.3,1,0.9,1
		c1.4,0.1,2.7-0.2,3.9-0.9c0.3-0.2,0.6-0.4,0.9-0.6c1.1,1.5,0.9,4.2-0.6,5.7c-0.6,0.6-1.3,0.9-2.1,1.3c-0.1,0.1-0.5,0-0.6-0.2
		c-0.4-0.3-0.7-0.7-1.1-1c-0.5-0.4-1-0.4-1.3,0.1c-0.4,0.4-0.3,1,0.2,1.4c1.2,1,1.9,2.3,1.9,3.9c0,3.7-3.8,6.1-7,4.3
		c-0.2-0.1-0.3-0.2-0.5-0.3c-0.5-0.2-0.9-0.1-1.2,0.4c-0.2,0.5-0.2,1,0.3,1.2c0.6,0.4,1.3,0.6,2,0.9c0.1,0.1,0.3,0.1,0.5,0.1
		c-0.9,0.8-1.9,1-3,1.3C304.8,430.1,304.5,430.1,304.1,430.1z M307.8,416.6c0-0.2,0-0.4,0-0.5c-0.2-2.8-1.5-4.7-4-5.9
		c-0.7-0.3-1.1-0.2-1.4,0.4c-0.2,0.6,0,1,0.6,1.3c2,1,3,2.7,2.8,4.9c0,0.3-0.2,0.7-0.5,0.9c-1.8,1.6-2.5,3.5-2.1,5.9
		c0.1,0.7,0.5,1,1.1,0.9c0.6-0.1,0.8-0.6,0.7-1.3c-0.4-2.7,1.2-4.7,3.9-4.9c0.6,0,1-0.4,1-1c0-0.5-0.4-0.9-0.9-1
		C308.7,416.6,308.2,416.6,307.8,416.6z M307,405.2c1.6,0,3.1-0.4,4.5-1.6c0.5-0.4,0.5-0.9,0.2-1.3c-0.4-0.5-0.9-0.6-1.3-0.2
		c-2.3,1.9-5.7,1.3-7.2-0.9c-0.1-0.2-0.4-0.4-0.6-0.4c-0.3,0.1-0.7,0.2-1,0.5c-0.3,0.3-0.2,0.7,0.1,1.1
		C303,404.1,304.7,405,307,405.2z"/>
</g>
</svg>
