<svg xmlns="http://www.w3.org/2000/svg" viewBox="0 0 92.19 119.19"><defs><style>.d{fill:#fff;}.e{fill:#1c1f3c;}.f{fill:none;stroke:#fff;stroke-miterlimit:10;stroke-width:4px;}</style></defs><g id="a"/><g id="b"><g id="c"><path class="e" d="M92.19,46.1c0,40.05-46.1,73.1-46.1,73.1,0,0-46.1-33.05-46.1-73.1C0,20.64,20.64,0,46.1,0s46.1,20.64,46.1,46.1Z"/><circle class="f" cx="46.1" cy="46.12" r="34.42"/><g><path class="d" d="M68.82,39.47v1.81c-.07,.32-.13,.64-.21,.96-.8,3.21-3.3,5.48-6.6,5.97-.34,.05-.49,.17-.6,.52-1.22,4.24-6.34,5.81-9.74,3-.17-.14-.33-.28-.51-.43-1.36,2.3-3.34,3.43-5.99,3.4-.48-2.63-1.87-4.55-4.32-5.55-2.46-1.01-4.78-.6-6.95,.95-.96-.91-1.48-2.02-1.6-3.33-.02-.24-.09-.36-.31-.46-4.03-1.88-6.07-6-5.14-10.33,.93-4.31,5.19-7.45,9.56-7,.7,.07,1.4,.22,2.11,.33,.99-2.96,2.99-4.92,6.12-5.47,3.14-.55,5.7,.61,7.65,3.1,2.11-1.21,4.23-1.33,6.3-.07,2.07,1.27,2.93,3.21,2.81,5.61,.11,.02,.18,.04,.25,.04,3.28,.31,5.97,2.54,6.88,5.71,.12,.4,.2,.82,.29,1.23Z"/><path class="d" d="M28.91,65.93c-.17-.07-.35-.14-.52-.21-1.29-.54-2.03-1.93-1.74-3.25,.33-1.47,1.53-2.38,3.06-2.31,1.29,.05,2.44,1.13,2.64,2.47,.21,1.36-.62,2.7-1.96,3.16-.11,.04-.22,.09-.33,.14h-1.15Z"/><path class="d" d="M33.69,55.61c0-2.52,2.03-4.52,4.57-4.52,2.49,0,4.51,2.05,4.5,4.55,0,2.51-2.05,4.52-4.58,4.52-2.49,0-4.5-2.04-4.49-4.55Z"/></g></g></g></svg>
