<svg version="1.1" id="Calque_1" xmlns="http://www.w3.org/2000/svg" xmlns:xlink="http://www.w3.org/1999/xlink" x="0px" y="0px"
	 viewBox="0 0 595.3 841.9" style="enable-background:new 0 0 595.3 841.9;" xml:space="preserve">
<style type="text/css">
	.st0{fill:#1C1F3C;}
	.st1{fill:none;stroke:#FFFFFF;stroke-width:4;stroke-miterlimit:10;}
	.st2{fill:#FFFFFF;}
</style>
<g id="b">
	<g id="c">
		<path class="st0" d="M344.1,408.2c0,40.1-46.1,73.1-46.1,73.1s-46.1-33-46.1-73.1c0-25.5,20.6-46.1,46.1-46.1
			C323.5,362.1,344.1,382.8,344.1,408.2L344.1,408.2z"/>
		<circle class="st1" cx="298" cy="408.2" r="34.4"/>
		<g>
			<path class="st2" d="M320.7,401.6v1.8c-0.1,0.3-0.1,0.6-0.2,1c-0.8,3.2-3.3,5.5-6.6,6c-0.3,0-0.5,0.2-0.6,0.5
				c-1.2,4.2-6.3,5.8-9.7,3c-0.2-0.1-0.3-0.3-0.5-0.4c-1.4,2.3-3.3,3.4-6,3.4c-0.5-2.6-1.9-4.5-4.3-5.5c-2.5-1-4.8-0.6-7,1
				c-1-0.9-1.5-2-1.6-3.3c0-0.2-0.1-0.4-0.3-0.5c-4-1.9-6.1-6-5.1-10.3c0.9-4.3,5.2-7.4,9.6-7c0.7,0.1,1.4,0.2,2.1,0.3
				c1-3,3-4.9,6.1-5.5c3.1-0.5,5.7,0.6,7.6,3.1c2.1-1.2,4.2-1.3,6.3-0.1c2.1,1.3,2.9,3.2,2.8,5.6c0.1,0,0.2,0,0.2,0
				c3.3,0.3,6,2.5,6.9,5.7C320.6,400.7,320.6,401.2,320.7,401.6L320.7,401.6z"/>
			<path class="st2" d="M280.8,428c-0.2-0.1-0.4-0.1-0.5-0.2c-1.3-0.5-2-1.9-1.7-3.2c0.3-1.5,1.5-2.4,3.1-2.3c1.3,0,2.4,1.1,2.6,2.5
				c0.2,1.4-0.6,2.7-2,3.2c-0.1,0-0.2,0.1-0.3,0.1H280.8z"/>
			<path class="st2" d="M285.6,417.7c0-2.5,2-4.5,4.6-4.5c2.5,0,4.5,2,4.5,4.5c0,2.5-2.1,4.5-4.6,4.5
				C287.6,422.3,285.6,420.2,285.6,417.7z"/>
		</g>
	</g>
</g>
</svg>
